<svg width="2252" height="1646" viewBox="0 0 2252 1646" fill="none" xmlns="http://www.w3.org/2000/svg">
<path d="M2251.06 916.783C2249.26 1071.78 2208.86 1226.08 2126.96 1357.88C2067.56 1453.48 1993.06 1549.08 1903.16 1620.88C1901.36 1622.35 1899.56 1623.78 1897.76 1625.18H455.961C455.461 1623.38 455.061 1621.98 454.661 1620.88C454.161 1619.88 453.761 1619.28 453.361 1619.18C323.261 1572.68 211.461 1487.08 196.461 1338.88C189.661 1272.18 204.761 1203.68 190.361 1138.18C173.561 1061.58 122.961 998.983 79.8611 935.583C30.3611 862.683 4.86109 799.483 0.461087 711.783C-5.53891 592.483 47.2611 477.883 144.661 401.183C336.761 249.983 600.761 302.083 814.661 205.983C911.961 162.283 989.661 82.9833 1086.46 38.0833C1256.16 -40.8167 1475.56 6.28328 1597.86 147.883C1666.86 227.583 1707.36 327.083 1777.26 406.283C1848.66 487.283 1951.56 508.583 2041.76 562.283C2160.26 632.683 2252.76 776.983 2251.06 916.783Z" fill="#DBEAFE"/>
<path d="M2195.16 1622.38V1626.68H52.9611V1622.38H2195.16Z" fill="#DBEAFE"/>
<path d="M1506.66 192.883H915.561C858.861 192.883 812.861 238.883 812.861 295.583V1520.58C812.861 1577.28 858.861 1623.28 915.561 1623.28H1506.66C1563.36 1623.28 1609.26 1577.28 1609.26 1520.58V295.583C1609.26 238.883 1563.36 192.883 1506.66 192.883Z" fill="#60A5FA"/>
<path d="M860.161 1459.48H1561.96V356.683H860.161V1459.48Z" fill="#FAFAFA"/>
<path fill-rule="evenodd" clip-rule="evenodd" d="M1595.66 295.583V1520.58C1595.66 1569.68 1555.76 1609.58 1506.66 1609.58H915.561C866.461 1609.58 826.561 1569.68 826.561 1520.58V295.583C826.561 246.483 866.461 206.583 915.561 206.583H1506.66C1555.76 206.583 1595.66 246.483 1595.66 295.583ZM1588.56 295.583C1588.56 250.383 1551.76 213.683 1506.66 213.683H915.561C870.361 213.683 833.661 250.383 833.661 295.583V1520.58C833.661 1565.78 870.361 1602.48 915.561 1602.48H1506.66C1551.76 1602.48 1588.56 1565.78 1588.56 1520.58V295.583Z" fill="#FAFAFA"/>
<path d="M1318.56 297.383H1103.66C1102.56 297.383 1101.66 296.483 1101.66 295.383V274.983C1101.66 273.883 1102.56 273.083 1103.66 273.083H1318.56C1319.66 273.083 1320.56 273.883 1320.56 274.983V295.383C1320.56 296.483 1319.66 297.383 1318.56 297.383Z" fill="#F9F9F9"/>
<path d="M1086.46 285.183C1086.46 291.883 1081.06 297.383 1074.36 297.383C1067.56 297.383 1062.16 291.883 1062.16 285.183C1062.16 278.483 1067.56 273.083 1074.36 273.083C1081.06 273.083 1086.46 278.483 1086.46 285.183Z" fill="#F9F9F9"/>
<path d="M1561.96 501.683H860.161V367.783H1561.96V501.683Z" fill="#E5E5E5"/>
<path d="M1006.96 434.783C1006.96 461.983 984.861 484.083 957.561 484.083C930.361 484.083 908.261 461.983 908.261 434.783C908.261 407.483 930.361 385.483 957.561 385.483C984.861 385.483 1006.96 407.483 1006.96 434.783Z" fill="#F9F9F9"/>
<path d="M1361.06 423.683H1051.36V406.883H1361.06V423.683Z" fill="#F9F9F9"/>
<path d="M1361.06 462.583H1051.36V445.883H1361.06V462.583Z" fill="#F9F9F9"/>
<path d="M1450.16 641.083C1450.16 617.483 1469.26 598.383 1492.86 598.383C1516.46 598.383 1535.56 617.483 1535.56 641.083C1535.56 664.683 1516.46 683.783 1492.86 683.783C1469.26 683.783 1450.16 664.683 1450.16 641.083Z" fill="#E5E5E5"/>
<path fill-rule="evenodd" clip-rule="evenodd" d="M1492.86 678.383C1472.26 678.383 1455.46 661.683 1455.46 641.083C1455.46 620.483 1472.26 603.683 1492.86 603.683C1513.46 603.683 1530.16 620.483 1530.16 641.083C1530.16 661.683 1513.46 678.383 1492.86 678.383ZM1492.86 607.283C1474.26 607.283 1459.06 622.483 1459.06 641.083C1459.06 659.683 1474.26 674.783 1492.86 674.783C1511.46 674.783 1526.56 659.683 1526.56 641.083C1526.56 622.483 1511.46 607.283 1492.86 607.283Z" fill="#F9F9F9"/>
<path d="M1422.66 706.383H1290.46V698.083H1422.66V706.383Z" fill="#E5E5E5"/>
<path d="M1138.26 999.483H1006.06V991.083H1138.26V999.483Z" fill="#E5E5E5"/>
<path d="M1138.26 1340.88H1006.06V1332.58H1138.26V1340.88Z" fill="#E5E5E5"/>
<path d="M1406.76 1206.38H1274.56V1197.98H1406.76V1206.38Z" fill="#E5E5E5"/>
<path d="M1108.56 606.383H1421.36C1424.46 606.383 1426.96 608.883 1426.96 612.083V670.083C1426.96 673.183 1424.46 675.783 1421.36 675.783H1108.56C1105.46 675.783 1102.96 673.183 1102.96 670.083V612.083C1102.96 608.883 1105.46 606.383 1108.56 606.383Z" fill="#E5E5E5"/>
<path d="M972.061 1271.48C972.061 1295.08 952.961 1314.18 929.361 1314.18C905.761 1314.18 886.661 1295.08 886.661 1271.48C886.661 1247.88 905.761 1228.78 929.361 1228.78C952.961 1228.78 972.061 1247.88 972.061 1271.48Z" fill="#E5E5E5"/>
<path d="M1313.56 1306.18H1000.86C997.761 1306.18 995.161 1303.58 995.161 1300.48V1242.48C995.161 1239.38 997.761 1236.78 1000.86 1236.78H1313.56C1316.76 1236.78 1319.26 1239.38 1319.26 1242.48V1300.48C1319.26 1303.58 1316.76 1306.18 1313.56 1306.18Z" fill="#E5E5E5"/>
<path d="M1450.16 1079.28C1450.16 1055.68 1469.26 1036.58 1492.86 1036.58C1516.46 1036.58 1535.56 1055.68 1535.56 1079.28C1535.56 1102.88 1516.46 1121.98 1492.86 1121.98C1469.26 1121.98 1450.16 1102.88 1450.16 1079.28Z" fill="#E5E5E5"/>
<path d="M1112.66 1044.58H1417.26C1422.66 1044.58 1426.96 1048.98 1426.96 1054.38V1154.18C1426.96 1159.58 1422.66 1163.98 1417.26 1163.98H1112.66C1107.26 1163.98 1102.96 1159.58 1102.96 1154.18V1054.38C1102.96 1048.98 1107.26 1044.58 1112.66 1044.58Z" fill="#E5E5E5"/>
<path d="M972.061 798.583C972.061 822.183 952.961 841.283 929.361 841.283C905.761 841.283 886.661 822.183 886.661 798.583C886.661 774.983 905.761 755.783 929.361 755.783C952.961 755.783 972.061 774.983 972.061 798.583Z" fill="#E5E5E5"/>
<path d="M1302.06 974.683H1012.46C1002.86 974.683 995.161 966.983 995.161 957.483V781.083C995.161 771.583 1002.86 763.883 1012.46 763.883H1302.06C1311.56 763.883 1319.26 771.583 1319.26 781.083V957.483C1319.26 966.983 1311.56 974.683 1302.06 974.683Z" fill="#E5E5E5"/>
<path d="M1133.36 631.183C1142.09 631.183 1150.83 631.183 1159.56 631.183C1180.49 631.183 1201.43 631.183 1222.36 631.183C1247.69 631.183 1273.03 631.183 1298.36 631.183C1320.29 631.183 1342.23 631.183 1364.16 631.183C1371.36 631.183 1378.59 631.183 1385.86 631.183C1389.16 631.183 1392.76 631.483 1396.16 631.183C1396.29 631.183 1396.43 631.183 1396.56 631.183C1398.86 631.183 1398.86 627.583 1396.56 627.583C1387.83 627.583 1379.13 627.583 1370.46 627.583C1349.46 627.583 1328.49 627.583 1307.56 627.583C1282.23 627.583 1256.89 627.583 1231.56 627.583C1209.63 627.583 1187.69 627.583 1165.76 627.583C1158.56 627.583 1151.36 627.583 1144.16 627.583C1140.76 627.583 1137.16 627.383 1133.86 627.583C1133.66 627.583 1133.49 627.583 1133.36 627.583C1131.06 627.583 1131.06 631.183 1133.36 631.183Z" fill="#F9F9F9"/>
<path d="M1133.36 654.483C1142.09 654.483 1150.83 654.483 1159.56 654.483C1180.49 654.483 1201.43 654.483 1222.36 654.483C1247.69 654.483 1273.03 654.483 1298.36 654.483C1320.29 654.483 1342.23 654.483 1364.16 654.483C1371.36 654.483 1378.59 654.483 1385.86 654.483C1389.16 654.483 1392.76 654.783 1396.16 654.483C1396.29 654.483 1396.43 654.483 1396.56 654.483C1398.86 654.483 1398.86 650.883 1396.56 650.883C1387.83 650.883 1379.13 650.883 1370.46 650.883C1349.46 650.883 1328.49 650.883 1307.56 650.883C1282.23 650.883 1256.89 650.883 1231.56 650.883C1209.63 650.883 1187.69 650.883 1165.76 650.883C1158.56 650.883 1151.36 650.883 1144.16 650.883C1140.76 650.883 1137.16 650.683 1133.86 650.883C1133.66 650.95 1133.49 650.95 1133.36 650.883C1131.06 650.883 1131.06 654.483 1133.36 654.483Z" fill="#F9F9F9"/>
<path d="M1025.66 1261.58C1034.33 1261.58 1043.03 1261.58 1051.76 1261.58C1072.69 1261.58 1093.66 1261.58 1114.66 1261.58C1139.99 1261.58 1165.33 1261.58 1190.66 1261.58C1212.59 1261.58 1234.49 1261.58 1256.36 1261.58C1263.63 1261.58 1270.86 1261.58 1278.06 1261.58C1281.46 1261.58 1284.96 1261.88 1288.36 1261.58C1288.49 1261.58 1288.66 1261.58 1288.86 1261.58C1291.16 1261.58 1291.16 1257.98 1288.86 1257.98C1280.13 1257.98 1271.39 1257.98 1262.66 1257.98C1241.73 1257.98 1220.79 1257.98 1199.86 1257.98C1174.53 1257.98 1149.19 1257.98 1123.86 1257.98C1101.93 1257.98 1079.99 1257.98 1058.06 1257.98C1050.86 1257.98 1043.63 1257.98 1036.36 1257.98C1032.96 1257.98 1029.46 1257.78 1026.06 1257.98C1025.93 1258.05 1025.79 1258.05 1025.66 1257.98C1023.36 1257.98 1023.36 1261.58 1025.66 1261.58Z" fill="#F9F9F9"/>
<path d="M1025.66 1284.98C1034.33 1284.98 1043.03 1284.98 1051.76 1284.98C1072.69 1284.98 1093.66 1284.98 1114.66 1284.98C1139.99 1284.98 1165.33 1284.98 1190.66 1284.98C1212.59 1284.98 1234.49 1284.98 1256.36 1284.98C1263.63 1284.98 1270.86 1284.98 1278.06 1284.98C1281.46 1284.98 1284.96 1285.18 1288.36 1284.98C1288.49 1284.92 1288.66 1284.92 1288.86 1284.98C1291.16 1284.98 1291.16 1281.38 1288.86 1281.38C1280.13 1281.38 1271.39 1281.38 1262.66 1281.38C1241.73 1281.38 1220.79 1281.38 1199.86 1281.38C1174.53 1281.38 1149.19 1281.38 1123.86 1281.38C1101.93 1281.38 1079.99 1281.38 1058.06 1281.38C1050.86 1281.38 1043.63 1281.38 1036.36 1281.38C1032.96 1281.38 1029.46 1281.08 1026.06 1281.38C1025.93 1281.38 1025.79 1281.38 1025.66 1281.38C1023.36 1281.38 1023.36 1284.98 1025.66 1284.98Z" fill="#F9F9F9"/>
<path d="M1133.36 1082.78C1142.09 1082.78 1150.83 1082.78 1159.56 1082.78C1180.49 1082.78 1201.43 1082.78 1222.36 1082.78C1247.69 1082.78 1273.03 1082.78 1298.36 1082.78C1320.29 1082.78 1342.23 1082.78 1364.16 1082.78C1371.36 1082.78 1378.59 1082.78 1385.86 1082.78C1389.16 1082.78 1392.76 1082.98 1396.16 1082.78C1396.29 1082.72 1396.43 1082.72 1396.56 1082.78C1398.86 1082.78 1398.86 1079.18 1396.56 1079.18C1387.83 1079.18 1379.13 1079.18 1370.46 1079.18C1349.46 1079.18 1328.49 1079.18 1307.56 1079.18C1282.23 1079.18 1256.89 1079.18 1231.56 1079.18C1209.63 1079.18 1187.69 1079.18 1165.76 1079.18C1158.56 1079.18 1151.36 1079.18 1144.16 1079.18C1140.76 1079.18 1137.16 1078.88 1133.86 1079.18C1133.66 1079.18 1133.49 1079.18 1133.36 1079.18C1131.06 1079.18 1131.06 1082.78 1133.36 1082.78Z" fill="#F9F9F9"/>
<path d="M1133.36 1106.08C1142.09 1106.08 1150.83 1106.08 1159.56 1106.08C1180.49 1106.08 1201.43 1106.08 1222.36 1106.08C1247.69 1106.08 1273.03 1106.08 1298.36 1106.08C1320.29 1106.08 1342.23 1106.08 1364.16 1106.08C1371.36 1106.08 1378.59 1106.08 1385.86 1106.08C1389.16 1106.08 1392.76 1106.28 1396.16 1106.08C1396.29 1106.08 1396.43 1106.08 1396.56 1106.08C1398.86 1106.08 1398.86 1102.48 1396.56 1102.48C1387.83 1102.48 1379.13 1102.48 1370.46 1102.48C1349.46 1102.48 1328.49 1102.48 1307.56 1102.48C1282.23 1102.48 1256.89 1102.48 1231.56 1102.48C1209.63 1102.48 1187.69 1102.48 1165.76 1102.48C1158.56 1102.48 1151.36 1102.48 1144.16 1102.48C1140.76 1102.48 1137.16 1102.18 1133.86 1102.48C1133.66 1102.48 1133.49 1102.48 1133.36 1102.48C1131.06 1102.48 1131.06 1106.08 1133.36 1106.08Z" fill="#F9F9F9"/>
<path d="M1228.56 1129.38C1247.56 1129.38 1266.56 1129.38 1285.56 1129.38C1315.56 1129.38 1345.59 1129.38 1375.66 1129.38C1382.66 1129.38 1389.63 1129.38 1396.56 1129.38C1398.86 1129.38 1398.86 1125.78 1396.56 1125.78C1377.56 1125.78 1358.56 1125.78 1339.56 1125.78C1309.56 1125.78 1279.53 1125.78 1249.46 1125.78C1242.46 1125.78 1235.49 1125.78 1228.56 1125.78C1226.26 1125.78 1226.26 1129.38 1228.56 1129.38Z" fill="#F9F9F9"/>
<path d="M1025.66 789.482C1034.33 789.482 1043.03 789.482 1051.76 789.482C1072.69 789.482 1093.66 789.482 1114.66 789.482C1139.99 789.482 1165.33 789.482 1190.66 789.482C1212.59 789.482 1234.49 789.482 1256.36 789.482C1263.63 789.482 1270.86 789.482 1278.06 789.482C1281.46 789.482 1284.96 789.682 1288.36 789.482C1288.49 789.482 1288.66 789.482 1288.86 789.482C1291.16 789.482 1291.16 785.882 1288.86 785.882C1280.13 785.882 1271.39 785.882 1262.66 785.882C1241.73 785.882 1220.79 785.882 1199.86 785.882C1174.53 785.882 1149.19 785.882 1123.86 785.882C1101.93 785.882 1079.99 785.882 1058.06 785.882C1050.86 785.882 1043.63 785.882 1036.36 785.882C1032.96 785.882 1029.46 785.582 1026.06 785.882C1025.93 785.882 1025.79 785.882 1025.66 785.882C1023.36 785.882 1023.36 789.482 1025.66 789.482Z" fill="#F9F9F9"/>
<path d="M1025.66 812.782C1034.33 812.782 1043.03 812.782 1051.76 812.782C1072.69 812.782 1093.66 812.782 1114.66 812.782C1139.99 812.782 1165.33 812.782 1190.66 812.782C1212.59 812.782 1234.49 812.782 1256.36 812.782C1263.63 812.782 1270.86 812.782 1278.06 812.782C1281.46 812.782 1284.96 813.082 1288.36 812.782C1288.49 812.782 1288.66 812.782 1288.86 812.782C1291.16 812.782 1291.16 809.182 1288.86 809.182C1280.13 809.182 1271.39 809.182 1262.66 809.182C1241.73 809.182 1220.79 809.182 1199.86 809.182C1174.53 809.182 1149.19 809.182 1123.86 809.182C1101.93 809.182 1079.99 809.182 1058.06 809.182C1050.86 809.182 1043.63 809.182 1036.36 809.182C1032.96 809.182 1029.46 808.882 1026.06 809.182C1025.93 809.182 1025.79 809.182 1025.66 809.182C1023.36 809.182 1023.36 812.782 1025.66 812.782Z" fill="#F9F9F9"/>
<path d="M1025.66 836.082C1043.06 836.082 1060.49 836.082 1077.96 836.082C1105.83 836.082 1133.66 836.082 1161.46 836.082C1167.93 836.082 1174.39 836.082 1180.86 836.082C1183.16 836.082 1183.16 832.482 1180.86 832.482C1163.39 832.482 1145.93 832.482 1128.46 832.482C1100.59 832.482 1072.76 832.482 1044.96 832.482C1038.49 832.482 1032.06 832.482 1025.66 832.482C1023.36 832.482 1023.36 836.082 1025.66 836.082Z" fill="#F9F9F9"/>
<path d="M1025.66 859.382C1033.86 859.382 1042.09 859.382 1050.36 859.382C1070.23 859.382 1090.06 859.382 1109.86 859.382C1133.86 859.382 1157.86 859.382 1181.86 859.382C1202.59 859.382 1223.33 859.382 1244.06 859.382C1250.86 859.382 1257.69 859.382 1264.56 859.382C1267.76 859.382 1271.06 859.682 1274.26 859.382C1274.39 859.382 1274.53 859.382 1274.66 859.382C1276.96 859.382 1276.96 855.782 1274.66 855.782C1266.39 855.782 1258.16 855.782 1249.96 855.782C1230.09 855.782 1210.26 855.782 1190.46 855.782C1166.46 855.782 1142.46 855.782 1118.46 855.782C1097.73 855.782 1076.99 855.782 1056.26 855.782C1049.46 855.782 1042.63 855.782 1035.76 855.782C1032.56 855.782 1029.26 855.582 1026.06 855.782C1025.93 855.782 1025.79 855.782 1025.66 855.782C1023.36 855.782 1023.36 859.382 1025.66 859.382Z" fill="#F9F9F9"/>
<path d="M1025.66 882.682C1034.33 882.682 1043.03 882.682 1051.76 882.682C1072.69 882.682 1093.66 882.682 1114.66 882.682C1139.99 882.682 1165.33 882.682 1190.66 882.682C1212.59 882.682 1234.49 882.682 1256.36 882.682C1263.63 882.682 1270.86 882.682 1278.06 882.682C1281.46 882.682 1284.96 882.982 1288.36 882.682C1288.49 882.682 1288.66 882.682 1288.86 882.682C1291.16 882.682 1291.16 879.082 1288.86 879.082C1280.13 879.082 1271.39 879.082 1262.66 879.082C1241.73 879.082 1220.79 879.082 1199.86 879.082C1174.53 879.082 1149.19 879.082 1123.86 879.082C1101.93 879.082 1079.99 879.082 1058.06 879.082C1050.86 879.082 1043.63 879.082 1036.36 879.082C1032.96 879.082 1029.46 878.882 1026.06 879.082C1025.93 879.149 1025.79 879.149 1025.66 879.082C1023.36 879.082 1023.36 882.682 1025.66 882.682Z" fill="#F9F9F9"/>
<path d="M1025.66 906.082C1034.33 906.082 1043.03 906.082 1051.76 906.082C1072.69 906.082 1093.66 906.082 1114.66 906.082C1139.99 906.082 1165.33 906.082 1190.66 906.082C1212.59 906.082 1234.49 906.082 1256.36 906.082C1263.63 906.082 1270.86 906.082 1278.06 906.082C1281.46 906.082 1284.96 906.282 1288.36 906.082C1288.49 906.015 1288.66 906.015 1288.86 906.082C1291.16 906.082 1291.16 902.482 1288.86 902.482C1280.13 902.482 1271.39 902.482 1262.66 902.482C1241.73 902.482 1220.79 902.482 1199.86 902.482C1174.53 902.482 1149.19 902.482 1123.86 902.482C1101.93 902.482 1079.99 902.482 1058.06 902.482C1050.86 902.482 1043.63 902.482 1036.36 902.482C1032.96 902.482 1029.46 902.182 1026.06 902.482C1025.93 902.482 1025.79 902.482 1025.66 902.482C1023.36 902.482 1023.36 906.082 1025.66 906.082Z" fill="#F9F9F9"/>
<path d="M1025.66 929.383C1034.33 929.383 1043.03 929.383 1051.76 929.383C1072.69 929.383 1093.66 929.383 1114.66 929.383C1139.99 929.383 1165.33 929.383 1190.66 929.383C1212.59 929.383 1234.49 929.383 1256.36 929.383C1263.63 929.383 1270.86 929.383 1278.06 929.383C1281.46 929.383 1284.96 929.583 1288.36 929.383C1288.49 929.383 1288.66 929.383 1288.86 929.383C1291.16 929.383 1291.16 925.783 1288.86 925.783C1280.13 925.783 1271.39 925.783 1262.66 925.783C1241.73 925.783 1220.79 925.783 1199.86 925.783C1174.53 925.783 1149.19 925.783 1123.86 925.783C1101.93 925.783 1079.99 925.783 1058.06 925.783C1050.86 925.783 1043.63 925.783 1036.36 925.783C1032.96 925.783 1029.46 925.483 1026.06 925.783C1025.93 925.783 1025.79 925.783 1025.66 925.783C1023.36 925.783 1023.36 929.383 1025.66 929.383Z" fill="#F9F9F9"/>
<path d="M1025.66 952.683C1034.33 952.683 1043.03 952.683 1051.76 952.683C1072.69 952.683 1093.66 952.683 1114.66 952.683C1139.99 952.683 1165.33 952.683 1190.66 952.683C1212.59 952.683 1234.49 952.683 1256.36 952.683C1263.63 952.683 1270.86 952.683 1278.06 952.683C1281.46 952.683 1284.96 952.983 1288.36 952.683C1288.49 952.683 1288.66 952.683 1288.86 952.683C1291.16 952.683 1291.16 949.083 1288.86 949.083C1280.13 949.083 1271.39 949.083 1262.66 949.083C1241.73 949.083 1220.79 949.083 1199.86 949.083C1174.53 949.083 1149.19 949.083 1123.86 949.083C1101.93 949.083 1079.99 949.083 1058.06 949.083C1050.86 949.083 1043.63 949.083 1036.36 949.083C1032.96 949.083 1029.46 948.783 1026.06 949.083C1025.93 949.083 1025.79 949.083 1025.66 949.083C1023.36 949.083 1023.36 952.683 1025.66 952.683Z" fill="#F9F9F9"/>
<path fill-rule="evenodd" clip-rule="evenodd" d="M929.361 835.883C908.761 835.883 892.061 819.083 892.061 798.583C892.061 777.983 908.761 761.183 929.361 761.183C949.961 761.183 966.661 777.983 966.661 798.583C966.661 819.083 949.961 835.883 929.361 835.883ZM929.361 764.783C910.761 764.783 895.561 779.883 895.561 798.583C895.561 817.183 910.761 832.283 929.361 832.283C947.961 832.283 963.061 817.183 963.061 798.583C963.061 779.883 947.961 764.783 929.361 764.783Z" fill="#F9F9F9"/>
<path fill-rule="evenodd" clip-rule="evenodd" d="M1492.86 1116.58C1472.26 1116.58 1455.46 1099.88 1455.46 1079.28C1455.46 1058.68 1472.26 1041.88 1492.86 1041.88C1513.46 1041.88 1530.16 1058.68 1530.16 1079.28C1530.16 1099.88 1513.46 1116.58 1492.86 1116.58ZM1492.86 1045.48C1474.26 1045.48 1459.06 1060.68 1459.06 1079.28C1459.06 1097.88 1474.26 1112.98 1492.86 1112.98C1511.46 1112.98 1526.56 1097.88 1526.56 1079.28C1526.56 1060.68 1511.46 1045.48 1492.86 1045.48Z" fill="#F9F9F9"/>
<path fill-rule="evenodd" clip-rule="evenodd" d="M929.361 1308.78C908.761 1308.78 892.061 1292.08 892.061 1271.48C892.061 1250.88 908.761 1234.18 929.361 1234.18C949.961 1234.18 966.661 1250.88 966.661 1271.48C966.661 1292.08 949.961 1308.78 929.361 1308.78ZM929.361 1237.78C910.761 1237.78 895.561 1252.88 895.561 1271.48C895.561 1290.08 910.761 1305.18 929.361 1305.18C947.961 1305.18 963.061 1290.08 963.061 1271.48C963.061 1252.88 947.961 1237.78 929.361 1237.78Z" fill="#F9F9F9"/>
<path d="M1004.16 1459.48L948.961 1602.48H915.561C892.261 1602.48 871.161 1592.68 856.261 1576.98L901.661 1459.48H1004.16Z" fill="#DBEAFE"/>
<path d="M1485.76 213.683L1430.56 356.683H1327.96L1383.26 213.683H1485.76Z" fill="#DBEAFE"/>
<path d="M1115.66 1459.48L1060.36 1602.48H1009.06L1064.36 1459.48H1115.66Z" fill="#DBEAFE"/>
<path d="M1579.76 258.783L1541.96 356.683H1490.66L1542.66 222.083C1558.66 229.883 1571.76 242.883 1579.76 258.783Z" fill="#DBEAFE"/>
<path fill-rule="evenodd" clip-rule="evenodd" d="M1211.06 1584.58C1181.56 1584.58 1157.46 1560.58 1157.46 1530.98C1157.46 1501.38 1181.56 1477.38 1211.06 1477.38C1240.66 1477.38 1264.76 1501.38 1264.76 1530.98C1264.76 1560.58 1240.66 1584.58 1211.06 1584.58ZM1211.06 1482.38C1184.36 1482.38 1162.56 1504.18 1162.56 1530.98C1162.56 1557.78 1184.36 1579.48 1211.06 1579.48C1237.86 1579.48 1259.66 1557.78 1259.66 1530.98C1259.66 1504.18 1237.86 1482.38 1211.06 1482.38Z" fill="#F9F9F9"/>
<path d="M584.561 596.184H880.061C887.961 596.184 894.361 602.584 894.361 610.484V757.084C894.361 764.984 887.961 771.384 880.061 771.384H584.561C576.661 771.384 570.261 764.984 570.261 757.084V610.484C570.261 602.584 576.661 596.184 584.561 596.184Z" fill="#93C5FD"/>
<path d="M707.061 657.483C699.461 649.883 687.261 649.883 679.661 657.483L675.961 661.183L672.261 657.483C664.761 649.883 652.461 649.883 644.961 657.483C637.361 664.983 637.361 677.183 644.961 684.783L648.661 688.483L675.961 715.783L703.361 688.483L707.061 684.783C714.561 677.183 714.561 664.983 707.061 657.483Z" fill="#60A5FA"/>
<path d="M819.661 657.483C812.161 649.883 799.861 649.883 792.361 657.483L788.661 661.183L784.861 657.483C777.361 649.883 765.161 649.883 757.561 657.483C750.061 664.983 750.061 677.183 757.561 684.783L761.261 688.483L788.661 715.783L815.961 688.483L819.661 684.783C827.261 677.183 827.261 664.983 819.661 657.483Z" fill="#60A5FA"/>
<path d="M1832.06 330.083C1824.36 322.483 1812.06 322.483 1804.46 330.083L1800.66 333.883L1796.96 330.083C1789.36 322.483 1776.96 322.483 1769.36 330.083C1761.76 337.683 1761.76 350.083 1769.36 357.683L1773.06 361.383L1800.66 388.983L1828.26 361.383L1832.06 357.683C1839.66 350.083 1839.66 337.683 1832.06 330.083Z" fill="#A3A3A3"/>
<path d="M1974.76 1051.58C1965.76 1042.58 1951.26 1042.58 1942.26 1051.58L1937.86 1055.98L1933.46 1051.58C1924.46 1042.58 1909.86 1042.58 1900.96 1051.58C1891.96 1060.58 1891.96 1075.08 1900.96 1084.08L1905.36 1088.48L1937.86 1120.98L1970.36 1088.48L1974.76 1084.08C1983.76 1075.08 1983.76 1060.58 1974.76 1051.58Z" fill="#A3A3A3"/>
<path d="M544.761 485.183C536.861 477.283 524.061 477.283 516.161 485.183L512.261 489.083L508.361 485.183C500.461 477.283 487.661 477.283 479.861 485.183C471.961 493.083 471.961 505.883 479.861 513.783L483.661 517.683L512.261 546.283L540.861 517.683L544.761 513.783C552.661 505.883 552.661 493.083 544.761 485.183Z" fill="#A3A3A3"/>
<path d="M316.861 1132.08C308.261 1123.48 294.261 1123.48 285.661 1132.08L281.461 1136.28L277.261 1132.08C268.661 1123.48 254.761 1123.48 246.161 1132.08C237.561 1140.68 237.561 1154.58 246.161 1163.18L250.361 1167.38L281.461 1198.58L312.561 1167.38L316.861 1163.18C325.461 1154.58 325.461 1140.68 316.861 1132.08Z" fill="#A3A3A3"/>
<path d="M1652.76 1491.78L1676.46 1514.58C1676.46 1514.58 1656.76 1544.88 1659.86 1551.68L1668.66 1571.78C1673.36 1582.78 1659.66 1592.28 1651.06 1584.08L1611.26 1546.08L1624.76 1531.98L1652.76 1491.78Z" fill="#FFC4B6"/>
<path d="M1695.66 1613.18L1685.06 1608.48L1660.76 1552.78L1644.36 1550.58L1624.66 1531.88L1602.86 1549.88C1601.06 1551.48 1600.96 1554.18 1602.66 1555.78L1667.86 1618.08C1669.96 1620.08 1672.76 1621.38 1675.76 1621.68L1693.46 1623.28C1696.36 1623.28 1698.76 1620.98 1698.76 1618.08C1698.86 1615.98 1697.56 1614.08 1695.66 1613.18Z" fill="#1E3A8A"/>
<path d="M1801.26 925.884L1804.36 928.384L1800.66 933.284L1801.26 925.884Z" fill="#3B82F6"/>
<path d="M1824.86 971.384L1822.26 963.084L1820.06 967.284L1824.86 971.384Z" fill="#3B82F6"/>
<path fill-rule="evenodd" clip-rule="evenodd" d="M1848.26 898.484C1845.76 898.484 1843.26 897.584 1841.26 896.084C1838.86 894.184 1837.26 891.484 1836.86 888.484C1836.46 885.384 1837.26 882.384 1839.16 879.984C1840.96 877.584 1843.66 875.984 1846.76 875.584C1849.76 875.184 1852.76 875.984 1855.26 877.884C1860.26 881.684 1861.26 888.884 1857.36 893.984C1855.46 896.384 1852.76 897.984 1849.76 898.384C1849.23 898.45 1848.73 898.484 1848.26 898.484ZM1848.26 876.684C1847.79 876.684 1847.33 876.717 1846.86 876.784C1844.16 877.084 1841.76 878.484 1840.06 880.684C1838.36 882.884 1837.66 885.584 1838.06 888.284C1838.36 890.984 1839.76 893.484 1841.96 895.084C1844.16 896.784 1846.86 897.484 1849.56 897.184C1852.36 896.784 1854.76 895.384 1856.36 893.184C1859.86 888.684 1858.96 882.284 1854.46 878.784C1852.66 877.384 1850.56 876.684 1848.26 876.684Z" fill="#FFC4B6"/>
<path d="M1857.66 892.484C1858.56 890.484 1859.46 888.484 1860.66 886.684C1863.36 882.984 1867.36 880.484 1870.66 877.384C1876.46 871.784 1881.76 863.784 1880.66 855.284C1880.56 854.484 1880.46 853.684 1880.56 852.884C1880.76 851.584 1881.76 850.484 1882.46 849.184C1884.16 846.384 1884.06 841.384 1881.46 838.984C1880.66 838.184 1879.36 837.784 1878.36 838.384C1877.16 839.917 1875.86 841.317 1874.46 842.584C1876.66 838.984 1877.96 834.884 1879.16 830.884C1879.56 829.684 1879.86 828.484 1880.16 827.384C1880.66 825.384 1881.76 822.484 1880.96 820.484C1880.36 819.084 1878.36 818.084 1877.16 819.084C1876.16 819.884 1875.56 821.884 1875.06 822.984C1872.36 828.284 1869.96 833.684 1866.46 838.584C1869.56 833.784 1871.26 828.084 1871.46 822.384C1871.46 821.584 1871.46 820.684 1871.06 819.984C1870.76 819.184 1870.06 818.584 1869.26 818.584C1868.06 818.584 1867.26 819.684 1866.76 820.784C1864.16 825.884 1862.36 831.484 1860.06 836.784C1857.76 842.084 1854.76 847.284 1850.36 850.984C1852.36 848.184 1853.46 844.684 1854.16 841.284C1854.36 839.884 1854.16 838.084 1852.86 837.684C1851.76 837.484 1850.86 838.284 1850.16 839.184C1846.36 843.451 1842.63 847.784 1838.96 852.184C1838.26 852.984 1837.56 853.884 1837.16 854.984C1836.56 856.584 1836.96 858.384 1837.26 860.084C1838.56 866.684 1841.66 875.484 1838.56 882.084L1857.66 892.484Z" fill="#FFC4B6"/>
<path d="M1857.76 893.183L1838.76 881.483C1831.06 893.983 1813.76 916.183 1800.66 933.283C1789.56 947.883 1780.36 960.983 1775.66 968.583L1808.16 988.683C1825.96 957.583 1841.86 925.483 1857.66 893.383L1857.76 893.183Z" fill="#FFC4B6"/>
<path d="M1775.86 968.284C1781.46 959.284 1793.16 956.484 1802.16 962.084C1811.16 967.584 1813.96 979.384 1808.36 988.284C1802.86 997.284 1791.06 1000.08 1782.06 994.584C1773.16 988.984 1770.36 977.284 1775.86 968.284Z" fill="#FFC4B6"/>
<path d="M1839.06 881.084C1842.26 875.884 1849.16 874.184 1854.36 877.484C1859.56 880.684 1861.26 887.584 1857.96 892.784C1854.76 897.984 1847.86 899.684 1842.66 896.384C1837.46 893.184 1835.76 886.284 1839.06 881.084Z" fill="#FFC4B6"/>
<path d="M1741.66 857.584C1751.46 870.284 1749.56 888.284 1737.56 898.684C1737.16 899.018 1736.73 899.351 1736.26 899.684C1723.16 909.884 1704.26 907.484 1694.16 894.384C1684.06 881.184 1686.46 862.384 1699.56 852.184C1712.66 842.084 1731.56 844.484 1741.66 857.584Z" fill="#FFC4B6"/>
<path d="M1799.46 957.085C1806.76 966.485 1804.96 979.885 1795.66 987.185C1786.26 994.385 1772.76 992.685 1765.56 983.285C1758.26 973.985 1760.06 960.485 1769.36 953.285C1778.76 945.985 1792.26 947.685 1799.46 957.085Z" fill="#FFC4B6"/>
<path d="M1694.16 894.284C1721.36 929.984 1735.06 948.084 1765.16 982.884L1765.56 983.284L1799.46 957.084C1774.36 919.284 1764.46 896.884 1741.96 858.084L1741.66 857.584L1694.16 894.284Z" fill="#FFC4B6"/>
<path d="M1742.46 856.884C1731.96 843.284 1712.46 840.784 1698.86 851.284C1688.26 859.384 1684.36 872.984 1688.06 884.984C1689.16 888.584 1691.06 891.784 1693.06 894.884C1700.16 905.784 1718.76 933.584 1730.16 947.784L1778.96 916.284C1765.06 892.084 1760.96 885.484 1747.56 864.584L1742.46 856.884Z" fill="#60A5FA"/>
<path d="M1813.86 953.784C1808.86 945.384 1803.76 935.684 1801.26 925.884C1797.96 930.184 1794.96 934.084 1792.46 937.384C1788.56 931.984 1778.96 916.284 1778.96 916.284C1778.96 916.284 1755.86 913.284 1749.86 921.384C1747.06 925.084 1744.46 926.585 1741.16 930.085C1740.26 930.985 1730.16 947.684 1730.16 947.784C1733.66 953.084 1745.16 967.084 1749.06 971.984C1757.66 982.984 1767.36 993.285 1777.86 1002.58C1779.66 1004.18 1781.56 1005.78 1783.76 1006.68C1786.96 1007.88 1790.66 1007.48 1793.76 1006.18C1800.66 1003.38 1806.66 996.784 1811.26 991.184C1816.16 985.184 1820.36 978.584 1824.46 971.984C1824.59 971.784 1824.73 971.584 1824.86 971.384C1820.86 965.584 1817.26 959.584 1813.86 953.784Z" fill="#60A5FA"/>
<path d="M1846.36 1208.38C1837.86 1186.28 1822.96 1165.68 1809.56 1146.48C1794.26 1124.58 1778.06 1099.08 1757.46 1081.98C1740.16 1067.68 1714.36 1060.28 1695.16 1071.88C1660.56 1092.78 1676.86 1135.58 1692.66 1162.68C1706.86 1186.98 1743.16 1214.68 1758.06 1243.88C1752.36 1257.48 1746.56 1271.18 1740.66 1284.88C1701.06 1376.48 1656.66 1467.28 1630.16 1518.38L1675.96 1549.68C1719.86 1486.88 1766.46 1425.28 1802.46 1357.38C1815.26 1333.18 1828.76 1308.58 1841.96 1283.78C1854.26 1260.68 1855.86 1232.98 1846.36 1208.38Z" fill="#1E3A8A"/>
<path d="M1795.66 1542.18H1828.56C1828.56 1542.18 1835.36 1577.68 1842.26 1580.48L1862.46 1588.98C1873.46 1593.58 1870.16 1609.98 1858.26 1609.98H1803.26V1590.48L1795.66 1542.18Z" fill="#FFC4B6"/>
<path d="M1920.46 1612.88L1843.66 1580.68L1830.26 1590.48H1803.16L1799.86 1618.58C1799.56 1620.88 1801.36 1622.98 1803.76 1622.98H1918.36C1921.26 1622.98 1923.66 1620.68 1923.66 1617.68C1923.66 1615.58 1922.36 1613.68 1920.46 1612.88Z" fill="#1E3A8A"/>
<path d="M1735.06 1105.48C1740.96 1117.58 1743.76 1131.58 1746.76 1144.78C1757.56 1192.48 1769.36 1239.88 1780.76 1287.38C1782.49 1294.45 1784.19 1301.52 1785.86 1308.58C1788.46 1319.58 1791.06 1330.58 1793.56 1341.58C1806.56 1398.08 1827.76 1487.98 1843.66 1563.08L1793.96 1582.68C1766.06 1507.98 1737.06 1433.68 1707.46 1359.58C1695.36 1329.38 1684.96 1297.38 1670.56 1268.18C1658.06 1242.88 1644.76 1217.28 1633.36 1191.28C1623.66 1169.08 1614.96 1142.48 1619.76 1117.98C1623.56 1098.78 1639.66 1085.78 1657.16 1078.98C1688.36 1066.88 1719.86 1073.48 1735.06 1105.48Z" fill="#1E3A8A"/>
<path d="M1632.26 848.383C1641.96 836.983 1659.36 826.183 1674.26 823.783C1701.46 819.283 1727.76 838.984 1741.66 860.584C1753.76 879.584 1759.66 900.983 1763.36 922.983C1769.16 957.183 1772.66 991.083 1775.96 1025.98C1778.76 1056.58 1784.76 1108.88 1784.76 1108.88C1731.66 1123.98 1676.56 1131.28 1621.26 1130.38C1616.66 1130.28 1613.16 1130.28 1611.26 1130.28C1611.36 1130.28 1608.96 1008.68 1608.46 948.684C1608.26 926.884 1608.06 904.684 1613.86 883.584C1617.36 870.684 1623.66 858.483 1632.26 848.383Z" fill="#60A5FA"/>
<path d="M1688.46 790.484L1692.16 780.184L1706.46 784.084L1720.86 788.084L1712.76 828.884L1711.86 833.184C1713.06 834.584 1714.06 836.184 1714.46 837.984C1716.16 844.284 1710.76 846.484 1705.46 845.084C1693.66 841.984 1684.56 832.884 1676.66 823.684L1688.46 790.484Z" fill="#FFC4B6"/>
<path d="M1688.46 790.484C1688.46 791.484 1688.46 792.484 1688.56 793.384C1690.36 808.184 1700.26 821.084 1712.76 828.884L1720.86 788.084L1706.46 784.084L1692.16 780.184L1688.46 790.484Z" fill="#EA8883"/>
<path d="M1698.26 791.484C1695.86 792.684 1693.46 794.184 1691.86 796.284C1690.76 797.884 1689.76 799.684 1688.26 800.883C1686.16 802.483 1683.06 802.584 1680.86 801.184C1677.96 799.384 1676.76 795.884 1675.26 792.984C1672.66 788.284 1668.56 783.984 1665.36 779.684C1659.86 772.384 1655.96 763.884 1655.46 754.484C1655.16 748.584 1656.96 742.284 1661.46 738.484C1666.06 734.684 1673.66 734.383 1677.56 738.883C1678.86 733.483 1680.76 728.084 1684.26 723.684C1687.76 719.384 1693.16 716.284 1698.76 716.684C1704.36 717.184 1709.56 721.784 1709.66 727.384C1715.76 719.484 1725.36 714.584 1735.26 714.084C1741.26 713.884 1745.86 719.284 1743.06 725.084C1742.16 726.984 1740.76 728.484 1739.26 729.984C1746.26 727.984 1754.06 732.583 1756.46 739.383C1760.56 750.784 1750.96 760.684 1741.26 764.784C1736.86 766.684 1732.16 766.784 1727.66 768.284C1723.86 769.584 1720.46 771.984 1717.96 775.084C1715.46 778.284 1713.06 781.984 1709.86 784.684C1706.46 787.684 1702.36 789.484 1698.26 791.484Z" fill="#172554"/>
<path d="M1738.46 798.484C1735.96 809.184 1730.46 817.984 1719.56 818.684C1707.96 819.384 1696.36 810.484 1690.66 801.784C1689.06 799.184 1687.86 796.684 1687.36 794.484C1685.16 793.984 1683.06 792.484 1681.46 790.284C1678.76 786.384 1678.96 781.584 1681.96 779.584C1684.66 777.784 1688.76 778.884 1691.56 781.984C1691.83 782.317 1692.09 782.684 1692.36 783.084C1693.16 784.184 1693.76 785.484 1694.06 786.684C1694.13 786.617 1694.19 786.551 1694.26 786.484C1695.06 785.584 1694.96 784.184 1694.76 782.984C1694.43 781.651 1694.56 780.384 1695.16 779.184C1695.43 778.717 1695.73 778.284 1696.06 777.884C1697.16 776.484 1698.46 775.484 1699.66 774.184C1701.06 772.384 1702.06 770.284 1702.46 768.084C1703.06 765.184 1704.16 762.784 1707.36 762.184C1709.26 761.784 1711.16 761.984 1712.96 762.384C1717.26 763.084 1721.36 764.384 1725.66 765.184C1729.96 766.084 1734.46 766.784 1738.66 765.784C1739.16 767.084 1739.56 769.584 1739.76 771.784C1740.56 779.584 1740.56 789.684 1738.46 798.484Z" fill="#FFC4B6"/>
<path d="M1683.36 782.084C1686.66 780.784 1690.06 783.484 1690.96 786.684C1691.06 787.184 1690.46 787.384 1690.26 786.984C1689.56 784.184 1686.66 781.584 1683.56 782.784C1683.16 782.884 1682.86 782.184 1683.36 782.084Z" fill="#EA8883"/>
<path d="M1738.46 798.484C1735.96 809.184 1730.46 817.984 1719.56 818.684C1707.96 819.384 1696.36 810.484 1690.66 801.784C1694.26 795.884 1694.66 788.084 1691.56 781.984C1692.56 779.084 1694.56 776.584 1696.76 774.584C1696.06 775.184 1695.96 776.484 1696.06 777.884C1696.16 779.284 1696.56 780.884 1696.76 781.684C1698.16 787.184 1701.06 793.584 1705.26 797.684C1707.96 800.184 1711.96 801.684 1715.46 800.484C1716.26 800.184 1717.06 799.684 1717.86 799.284C1720.16 798.084 1722.76 797.584 1725.26 797.284C1729.06 796.784 1732.96 796.884 1736.66 797.684C1737.46 797.784 1738.06 798.084 1738.46 798.484Z" fill="#172554"/>
<path d="M1706.66 1122.78C1708.36 1129.38 1704.46 1135.98 1697.86 1137.68C1691.36 1139.38 1684.66 1135.38 1683.06 1128.88C1681.36 1122.38 1685.26 1115.68 1691.86 1113.98C1698.36 1112.38 1705.06 1116.28 1706.66 1122.78Z" fill="#FFC4B6"/>
<path d="M1690.06 1151.18C1691.86 1154.78 1695.96 1160.38 1698.16 1162.28C1698.16 1162.28 1699.86 1160.68 1700.26 1160.28C1709.06 1151.98 1716.66 1142.78 1721.36 1131.48C1719.66 1130.88 1717.86 1130.28 1716.16 1129.48C1712.06 1127.48 1707.96 1124.78 1705.96 1120.68C1702.83 1122.02 1699.69 1123.35 1696.56 1124.68C1694.16 1125.75 1691.73 1126.78 1689.26 1127.78C1687.56 1128.58 1684.36 1128.98 1683.46 1130.58C1686.36 1135.88 1686.66 1140.68 1688.06 1145.78C1688.53 1147.65 1689.19 1149.45 1690.06 1151.18Z" fill="#FFC4B6"/>
<path d="M1683.66 1131.18L1705.66 1119.28C1697.86 1104.78 1686.06 1075.48 1676.76 1053.18C1668.86 1034.18 1661.26 1017.78 1656.56 1008.98L1618.76 1029.28C1638.96 1063.98 1661.26 1097.58 1683.56 1130.98L1683.66 1131.18Z" fill="#FFC4B6"/>
<path d="M1656.76 1009.38C1662.36 1019.78 1658.46 1032.78 1648.06 1038.38C1637.56 1043.98 1624.56 1040.08 1618.96 1029.68C1613.36 1019.28 1617.26 1006.28 1627.76 1000.58C1638.16 994.984 1651.16 998.984 1656.76 1009.38Z" fill="#FFC4B6"/>
<path d="M1705.96 1119.78C1709.16 1125.78 1706.96 1133.38 1700.86 1136.68C1694.76 1139.98 1687.16 1137.68 1683.86 1131.58C1680.66 1125.48 1682.96 1117.88 1688.96 1114.68C1695.06 1111.38 1702.66 1113.68 1705.96 1119.78Z" fill="#FFC4B6"/>
<path d="M1679.76 888.784C1678.06 904.684 1664.66 916.384 1649.46 915.684C1648.93 915.684 1648.36 915.65 1647.76 915.584C1631.96 913.884 1620.46 899.184 1622.26 882.684C1623.96 866.184 1638.26 854.184 1654.16 855.784C1670.06 857.484 1681.46 872.284 1679.76 888.784Z" fill="#FFC4B6"/>
<path d="M1657.26 1021.78C1656.06 1033.58 1645.86 1042.08 1634.56 1040.88C1623.16 1039.68 1614.96 1029.18 1616.26 1017.38C1617.46 1005.68 1627.66 997.084 1639.06 998.284C1650.36 999.484 1658.56 1009.98 1657.26 1021.78Z" fill="#FFC4B6"/>
<path d="M1622.26 882.684C1617.26 927.184 1615.26 972.084 1616.26 1016.78V1017.38L1657.26 1021.78C1661.76 977.184 1669.16 932.884 1679.56 889.284L1679.76 888.784L1622.26 882.684Z" fill="#FFC4B6"/>
<path d="M1669.96 1058.78C1673.36 1056.38 1676.66 1053.78 1679.76 1051.08C1674.66 1039.58 1670.76 1030.48 1669.56 1028.08C1668.16 1024.98 1666.56 1021.88 1665.56 1018.58C1663.46 1011.38 1664.26 1006.38 1665.26 999.184C1667.16 984.684 1674.46 927.784 1680.06 898.784L1681.86 889.584C1683.86 872.584 1671.56 857.084 1654.56 855.184C1641.26 853.584 1629.06 860.584 1623.26 871.784C1621.56 875.084 1620.66 878.684 1619.96 882.384C1617.43 895.051 1615.09 907.817 1612.96 920.684C1607.86 952.584 1607.76 984.284 1608.96 1016.38C1609.26 1024.48 1610.86 1031.98 1614.96 1038.98C1617.96 1043.98 1625.96 1058.68 1635.06 1075.38C1647.76 1072.38 1659.16 1066.48 1669.96 1058.78Z" fill="#60A5FA"/>
<path d="M1723.06 1125.98C1716.26 1141.08 1706.76 1155.18 1693.36 1165.28C1692.16 1166.18 1693.36 1168.28 1694.56 1167.38C1708.26 1156.98 1718.16 1142.68 1725.16 1127.18C1725.76 1125.78 1723.66 1124.48 1723.06 1125.98Z" fill="#1E3A8A"/>
<path d="M1881.06 813.784L1879.46 813.684C1878.76 813.584 1878.16 813.984 1877.86 814.584L1853.06 866.984C1852.46 868.384 1853.36 869.984 1854.86 870.084L1857.16 870.284C1858.66 870.484 1860.16 869.584 1860.86 868.184L1884.06 819.084C1885.16 816.784 1883.66 813.984 1881.06 813.784Z" fill="#1E40AF"/>
<path d="M1881.26 813.784L1878.56 813.584C1876.76 813.384 1875.06 814.384 1874.26 815.984L1851.16 864.984C1850.06 867.184 1851.56 869.784 1853.96 869.984L1854.46 870.084C1855.96 870.184 1857.46 869.384 1858.06 867.984L1882.56 816.084C1883.06 815.084 1882.36 813.884 1881.26 813.784Z" fill="#2563EB"/>
<path d="M1851.36 865.184L1858.26 865.884L1880.66 818.284L1873.86 817.684L1851.36 865.184Z" fill="#F9F9F9"/>
<path d="M1871.96 856.683C1872.16 858.183 1872.26 859.583 1872.56 861.083C1872.56 861.183 1872.66 861.283 1872.66 861.383C1872.86 861.483 1873.06 861.383 1873.26 861.283C1877.66 858.983 1878.76 855.383 1877.36 850.583C1876.66 848.283 1875.46 846.283 1874.36 844.283C1873.86 843.383 1873.16 842.383 1872.16 842.283C1870.96 842.083 1869.96 843.183 1869.76 844.383C1869.66 845.583 1870.06 846.783 1870.46 847.883C1871.36 850.883 1871.66 853.783 1871.96 856.683Z" fill="#FFC4B6"/>
<path d="M1875.96 843.583C1875.16 841.683 1874.36 839.383 1874.36 837.183C1874.46 834.783 1876.66 831.983 1878.46 835.083C1878.99 836.083 1879.56 837.083 1880.16 838.083C1881.46 840.583 1882.96 843.083 1883.06 845.983C1883.16 848.183 1882.36 850.483 1881.36 852.483C1880.76 853.583 1879.06 855.883 1879.06 856.983C1879.06 853.583 1878.46 850.183 1877.36 846.883C1877.06 846.083 1876.56 844.883 1875.96 843.583Z" fill="#FFC4B6"/>
<path d="M1608.46 1017.78C1608.56 1027.68 1612.76 1035.68 1617.26 1044.08C1621.79 1052.35 1626.33 1060.65 1630.86 1068.98C1632.06 1071.18 1633.29 1073.42 1634.56 1075.68C1634.66 1075.88 1634.96 1075.98 1635.16 1075.98C1638.29 1075.05 1641.43 1074.12 1644.56 1073.18C1645.26 1072.98 1644.96 1071.78 1644.26 1071.98C1642.19 1072.58 1640.16 1073.18 1638.16 1073.78C1637.26 1074.08 1636.06 1074.18 1635.26 1074.68C1634.76 1074.98 1635.66 1075.38 1635.36 1074.78C1633.96 1071.68 1632.06 1068.78 1630.46 1065.78C1625.59 1056.78 1620.69 1047.75 1615.76 1038.68C1612.16 1032.18 1609.76 1025.38 1609.66 1017.78C1609.66 1016.98 1608.46 1016.98 1608.46 1017.78Z" fill="#3B82F6"/>
<path d="M1681.26 889.483C1678.13 912.017 1675.03 934.517 1671.96 956.983C1669.96 971.45 1667.96 985.883 1665.96 1000.28C1665.36 1004.15 1664.79 1008.02 1664.26 1011.88C1664.06 1013.98 1664.16 1014.68 1665.06 1016.78C1668.13 1024.32 1671.23 1031.88 1674.36 1039.48C1675.63 1042.68 1676.93 1045.88 1678.26 1049.08C1678.56 1049.68 1678.96 1050.48 1679.16 1051.18C1679.06 1050.28 1679.36 1050.78 1678.46 1051.28C1677.76 1051.68 1677.16 1052.18 1676.46 1052.58C1675.86 1053.08 1676.46 1054.08 1677.06 1053.68C1678.06 1052.95 1679.06 1052.25 1680.06 1051.58C1680.26 1051.48 1680.46 1051.18 1680.36 1050.88C1675.83 1039.82 1671.29 1028.78 1666.76 1017.78C1666.36 1016.78 1665.96 1015.88 1665.56 1014.98C1665.46 1014.78 1665.06 1013.58 1665.16 1014.28C1665.16 1013.78 1665.36 1013.08 1665.46 1012.58C1665.93 1008.92 1666.43 1005.25 1666.96 1001.58C1670.96 972.65 1674.96 943.717 1678.96 914.783C1680.09 906.45 1681.26 898.117 1682.46 889.783C1682.56 888.983 1681.36 888.683 1681.26 889.483Z" fill="#3B82F6"/>
<path d="M1764.66 935.083C1766.99 953.483 1769.33 971.917 1771.66 990.383C1771.99 993.05 1772.33 995.717 1772.66 998.383C1772.76 999.083 1773.96 999.083 1773.86 998.383C1771.53 979.917 1769.19 961.45 1766.86 942.983C1766.53 940.383 1766.19 937.75 1765.86 935.083C1765.76 934.283 1764.56 934.283 1764.66 935.083Z" fill="#3B82F6"/>
<path d="M1638.26 1065.78C1650.46 1062.08 1661.46 1055.68 1670.56 1046.88C1671.06 1046.28 1670.26 1045.48 1669.66 1045.98C1660.76 1054.68 1649.96 1060.98 1637.96 1064.58C1637.26 1064.88 1637.56 1065.98 1638.26 1065.78Z" fill="#3B82F6"/>
<path d="M1797.16 938.484C1800.16 951.384 1806.26 963.384 1814.86 973.584C1815.36 974.184 1816.16 973.284 1815.66 972.684C1807.16 962.684 1801.26 950.884 1798.26 938.084C1798.16 937.384 1796.96 937.684 1797.16 938.484Z" fill="#3B82F6"/>
<path d="M1672.16 830.483C1678.76 839.883 1688.36 847.883 1699.56 851.283C1704.36 852.783 1710.46 853.383 1714.76 850.083C1719.06 846.783 1718.56 841.883 1716.16 837.583C1715.86 836.883 1714.76 837.483 1715.16 838.183C1716.86 841.283 1717.86 844.883 1715.26 847.983C1713.46 849.983 1710.86 850.983 1708.26 851.183C1703.06 851.683 1697.86 849.683 1693.36 847.483C1685.26 843.383 1678.36 837.283 1673.16 829.883C1672.76 829.183 1671.76 829.783 1672.16 830.483Z" fill="#3B82F6"/>
<path d="M520.361 1596.28L525.761 1607.58L492.761 1600.88L473.761 1591.68L501.661 1586.58L520.361 1596.28Z" fill="#1E3A8A"/>
<path d="M463.261 1582.48L466.661 1597.28L457.061 1594.38L458.961 1588.18L463.261 1582.48Z" fill="#1E3A8A"/>
<path d="M419.061 1575.68L412.961 1581.38L419.061 1582.98L422.361 1579.28L419.061 1575.68Z" fill="#1E3A8A"/>
<path d="M476.261 1551.38L438.861 1548.48C438.861 1548.48 426.361 1582.18 412.161 1587.98L374.161 1601.68C365.461 1604.98 367.261 1617.78 376.561 1618.48L456.061 1624.68C455.461 1615.98 455.361 1604.68 455.361 1604.68C455.661 1595.68 461.461 1578.78 468.061 1566.68L476.261 1551.38Z" fill="#FFC4B6"/>
<path d="M456.561 1600.48C430.561 1606.88 407.261 1606.48 381.861 1597.98L328.561 1615.88C326.361 1616.78 324.761 1619.08 324.661 1621.78C324.561 1625.38 327.161 1628.38 330.461 1628.58L446.861 1633.48C453.061 1633.68 458.161 1628.58 457.761 1622.38L456.561 1600.48Z" fill="#93C5FD"/>
<path fill-rule="evenodd" clip-rule="evenodd" d="M560.061 1332.48C556.961 1332.78 553.961 1331.88 551.661 1329.88C546.761 1325.88 546.061 1318.58 550.161 1313.78C552.061 1311.38 554.861 1309.98 557.961 1309.68C560.961 1309.38 563.961 1310.28 566.361 1312.28C568.661 1314.18 570.161 1316.98 570.461 1319.98C570.661 1323.08 569.761 1326.08 567.861 1328.38C566.161 1330.38 563.961 1331.68 561.561 1332.28C561.094 1332.42 560.594 1332.48 560.061 1332.48ZM551.061 1314.48C547.461 1318.88 548.061 1325.38 552.361 1328.98C554.561 1330.78 557.161 1331.58 559.961 1331.38C562.661 1331.08 565.161 1329.78 566.861 1327.68C568.661 1325.58 569.461 1322.88 569.261 1320.18C568.961 1317.38 567.661 1314.88 565.561 1313.18C563.461 1311.38 560.761 1310.58 558.061 1310.88C557.594 1310.88 557.128 1310.95 556.661 1311.08C554.461 1311.58 552.561 1312.78 551.061 1314.48Z" fill="#F7B3A6"/>
<path d="M551.061 1328.58C549.761 1326.88 548.361 1324.98 546.761 1323.58C543.361 1320.58 538.961 1318.98 535.061 1316.68C528.061 1312.58 521.161 1305.88 520.361 1297.38C520.261 1296.58 520.261 1295.78 519.961 1295.08C519.461 1293.78 518.161 1292.88 517.261 1291.88C514.961 1289.48 513.961 1284.58 515.861 1281.68C516.561 1280.68 517.761 1280.08 518.861 1280.38C520.328 1281.58 521.894 1282.65 523.561 1283.58C520.561 1280.58 518.461 1276.88 516.361 1273.18C515.761 1272.18 515.161 1271.08 514.661 1270.08C513.761 1268.18 511.961 1265.68 512.361 1263.58C512.561 1261.98 514.361 1260.58 515.761 1261.38C516.861 1261.88 517.861 1263.68 518.661 1264.68C522.461 1269.28 525.961 1273.98 530.461 1277.98C526.461 1273.98 523.561 1268.78 522.061 1263.28C521.861 1262.48 521.661 1261.68 521.861 1260.78C521.961 1259.98 522.561 1259.18 523.361 1259.08C524.461 1258.78 525.461 1259.78 526.261 1260.68C529.961 1265.08 532.861 1270.18 536.261 1274.78C539.761 1279.48 543.761 1283.88 548.961 1286.48C546.361 1284.18 544.461 1280.98 543.161 1277.88C542.561 1276.58 542.361 1274.68 543.561 1274.08C544.561 1273.58 545.661 1274.28 546.561 1274.88C551.228 1278.22 555.794 1281.62 560.261 1285.08C561.161 1285.78 562.061 1286.48 562.661 1287.38C563.561 1288.88 563.661 1290.68 563.761 1292.38C563.961 1299.18 562.861 1308.48 567.361 1314.18L551.061 1328.58Z" fill="#F7B3A6"/>
<path d="M551.261 1329.48L567.161 1313.88C577.561 1324.38 599.361 1342.08 615.861 1355.88C629.961 1367.68 641.861 1378.48 648.161 1384.88L620.861 1411.68C596.661 1385.28 573.961 1357.48 551.461 1329.68L551.261 1329.48Z" fill="#F7B3A6"/>
<path d="M647.861 1384.58C640.461 1376.98 628.361 1376.88 620.761 1384.28C613.261 1391.68 613.161 1403.78 620.561 1411.28C627.961 1418.88 640.061 1418.98 647.561 1411.58C655.061 1404.18 655.161 1392.08 647.861 1384.58Z" fill="#F7B3A6"/>
<path d="M566.861 1313.58C562.561 1309.18 555.561 1309.08 551.161 1313.38C546.761 1317.68 546.661 1324.78 550.961 1329.18C555.361 1333.58 562.361 1333.58 566.761 1329.28C571.161 1324.98 571.261 1317.98 566.861 1313.58Z" fill="#F7B3A6"/>
<path d="M676.261 1283.48C666.561 1296.18 668.461 1314.18 680.361 1324.58C680.828 1324.92 681.261 1325.28 681.661 1325.68C694.861 1335.78 713.661 1333.38 723.861 1320.28C733.961 1307.08 731.561 1288.28 718.461 1278.08C705.261 1267.98 686.461 1270.38 676.261 1283.48Z" fill="#F7B3A6"/>
<path d="M618.561 1382.98C611.261 1392.38 612.961 1405.88 622.361 1413.08C631.761 1420.28 645.161 1418.58 652.461 1409.18C659.661 1399.88 657.961 1386.38 648.561 1379.18C639.261 1371.88 625.761 1373.68 618.561 1382.98Z" fill="#F7B3A6"/>
<path d="M723.861 1320.28C696.661 1355.88 682.861 1373.98 652.861 1408.78L652.461 1409.18L618.561 1382.98C643.661 1345.18 653.561 1322.88 675.961 1284.08L676.261 1283.48L723.861 1320.28Z" fill="#F7B3A6"/>
<path d="M539.161 1299.88C539.261 1301.28 539.461 1302.78 539.461 1304.28C539.461 1304.38 539.461 1304.48 539.461 1304.58C539.361 1304.68 539.061 1304.68 538.861 1304.68C534.061 1303.28 532.161 1300.08 532.561 1295.08C532.661 1292.68 533.361 1290.48 534.061 1288.18C534.361 1287.28 534.761 1286.18 535.661 1285.78C536.861 1285.38 538.061 1286.28 538.561 1287.38C538.961 1288.48 538.761 1289.78 538.661 1290.98C538.361 1294.08 538.761 1296.88 539.161 1299.88Z" fill="#F7B3A6"/>
<path d="M532.261 1287.98C532.661 1285.88 532.961 1283.48 532.461 1281.38C531.861 1279.08 529.061 1276.78 528.061 1280.18C527.728 1281.32 527.394 1282.42 527.061 1283.48C526.261 1286.18 525.461 1289.08 525.961 1291.78C526.361 1294.08 527.561 1296.08 529.061 1297.88C529.861 1298.78 532.061 1300.58 532.261 1301.68C531.561 1298.38 531.361 1294.88 531.761 1291.48C531.761 1290.68 532.061 1289.38 532.261 1287.98Z" fill="#F7B3A6"/>
<path d="M511.761 1248.68L513.261 1248.18C513.961 1247.98 514.661 1248.18 515.061 1248.78L550.861 1294.38C551.761 1295.58 551.261 1297.28 549.761 1297.78L547.561 1298.48C546.161 1298.98 544.461 1298.48 543.561 1297.28L509.961 1254.48C508.461 1252.48 509.361 1249.48 511.761 1248.68Z" fill="#60A5FA"/>
<path d="M511.561 1248.78L514.161 1247.88C515.861 1247.38 517.761 1247.88 518.861 1249.28L552.361 1291.98C553.861 1293.98 552.961 1296.78 550.661 1297.48L550.261 1297.68C548.761 1298.18 547.161 1297.68 546.161 1296.48L510.761 1251.28C510.061 1250.38 510.461 1249.08 511.561 1248.78Z" fill="#93C5FD"/>
<path d="M552.061 1292.28L545.561 1294.38L513.161 1252.98L519.661 1250.88L552.061 1292.28Z" fill="#F9F9F9"/>
<path d="M533.661 1563.48L496.161 1560.58C496.161 1560.58 483.661 1594.28 469.461 1600.08L431.461 1613.88C422.761 1617.08 424.561 1629.88 433.861 1630.68L513.361 1636.78C512.861 1628.08 512.661 1616.78 512.661 1616.78C512.961 1607.78 518.761 1590.88 525.461 1578.78L533.661 1563.48Z" fill="#FFC4B6"/>
<path d="M513.961 1612.58C487.961 1619.08 462.161 1618.18 436.761 1609.58L385.961 1627.98C383.661 1628.98 382.161 1631.28 382.061 1633.88C381.861 1637.48 384.461 1640.58 387.761 1640.68L504.261 1645.58C510.361 1645.88 515.461 1640.68 515.161 1634.58L513.961 1612.58Z" fill="#93C5FD"/>
<path d="M668.161 1181.98C667.861 1173.48 673.661 1164.38 681.461 1160.98C685.761 1159.08 690.361 1158.08 694.361 1155.48C698.461 1152.88 702.161 1149.88 706.361 1147.58C711.761 1144.78 717.761 1143.38 723.861 1143.38C736.361 1143.38 748.561 1149.38 755.861 1159.48C766.461 1174.18 766.061 1194.48 775.861 1209.68C785.461 1224.78 803.261 1236.38 803.661 1256.08C803.961 1275.38 787.661 1291.98 772.761 1301.98C762.861 1308.78 751.761 1314.08 739.861 1315.58C727.961 1317.08 715.161 1314.38 706.061 1306.68C690.061 1293.08 689.461 1270.08 692.561 1250.98C693.761 1243.48 695.761 1235.88 694.361 1228.48C692.261 1217.78 683.861 1211.68 677.161 1203.88C672.061 1197.98 668.461 1189.78 668.161 1181.98Z" fill="#172554"/>
<path d="M747.661 1217.18C744.361 1216.68 741.161 1215.48 738.761 1213.28C734.261 1209.08 733.461 1202.18 729.561 1197.38C727.861 1195.18 729.061 1192.08 730.761 1189.88C732.461 1187.68 735.361 1186.38 738.061 1186.68C742.061 1187.08 745.161 1190.18 747.261 1193.48C749.961 1197.58 751.761 1202.58 750.661 1207.38C749.961 1210.58 746.661 1213.88 747.661 1217.18Z" fill="#172554"/>
<path d="M759.561 1517.08C750.361 1507.28 738.361 1499.48 727.161 1491.88C686.661 1464.58 588.361 1395.78 588.161 1395.68C585.161 1393.58 577.761 1388.48 568.661 1382.28C538.861 1361.88 498.061 1372.58 481.961 1404.78L476.161 1416.48C451.761 1465.48 434.961 1526.68 412.961 1581.38C412.961 1581.38 453.261 1588.48 466.661 1597.28C466.661 1597.28 503.161 1517.28 535.361 1471.18C552.361 1486.28 569.361 1501.58 584.461 1518.18C603.461 1538.98 620.261 1563.08 640.361 1583.18C657.561 1600.28 678.761 1621.68 703.761 1622.38C722.861 1622.98 743.161 1613.18 755.861 1599.38C778.461 1574.68 783.861 1542.98 759.561 1517.08Z" fill="#1E3A8A"/>
<path d="M677.361 1275.68C688.061 1259.88 708.361 1254.78 722.561 1264.38C733.661 1271.78 737.861 1285.88 734.161 1299.28C733.061 1303.18 731.261 1306.88 729.161 1310.48C721.961 1323.08 703.061 1355.28 691.361 1371.88L640.361 1344.08C654.461 1316.38 658.561 1308.78 672.161 1284.68L677.361 1275.68Z" fill="#93C5FD"/>
<path d="M772.361 1252.88C764.361 1245.68 754.561 1240.88 743.861 1239.28C732.261 1237.48 719.161 1241.28 708.461 1245.98C696.061 1251.38 686.761 1260.08 680.261 1271.78C673.361 1284.18 668.761 1297.68 665.261 1311.38C662.961 1320.68 661.161 1330.18 659.661 1339.58C658.161 1349.28 657.261 1359.28 660.061 1368.58C663.061 1378.28 669.761 1386.28 674.361 1395.28C683.761 1413.58 684.161 1434.98 682.561 1455.48C681.361 1470.78 679.661 1487.88 689.361 1499.68C699.561 1512.08 722.461 1517.98 737.461 1522.18C755.961 1527.28 776.361 1536.28 793.161 1545.28C802.961 1504.58 810.461 1468.88 813.061 1428.98C815.661 1389.38 812.461 1349.78 802.261 1311.58C796.961 1291.68 788.561 1267.78 772.361 1252.88Z" fill="#93C5FD"/>
<path d="M689.161 1472.68C689.161 1472.68 636.961 1419.48 604.861 1386.88C586.061 1367.68 552.361 1374.38 543.361 1399.08C543.294 1399.15 543.261 1399.25 543.261 1399.38C539.461 1409.78 535.161 1421.38 530.561 1433.98C512.361 1483.58 492.761 1536.78 473.761 1591.68L525.761 1607.58C529.461 1601.78 545.661 1572.28 551.561 1561.38C562.561 1541.08 575.061 1516.88 585.461 1496.28C600.861 1522.78 619.161 1553.58 637.061 1578.38C652.461 1599.58 670.961 1617.98 697.661 1622.38C721.661 1626.28 748.361 1618.68 765.661 1601.18C784.761 1581.68 793.461 1553.98 799.861 1528.08C802.861 1515.68 805.961 1492.98 805.961 1485.68L689.161 1472.68Z" fill="#1E3A8A"/>
<path d="M561.561 1337.08L574.861 1319.08C586.661 1327.88 611.061 1341.98 629.561 1353.08C645.261 1362.48 658.761 1371.28 665.861 1376.58L643.161 1407.28C615.161 1385.08 588.361 1361.08 561.761 1337.18L561.561 1337.08Z" fill="#FFC4B6"/>
<path d="M665.561 1376.28C657.061 1370.08 645.161 1371.78 638.861 1380.28C632.561 1388.78 634.361 1400.78 642.861 1406.98C651.361 1413.28 663.261 1411.48 669.561 1402.98C675.861 1394.58 674.061 1382.58 665.561 1376.28Z" fill="#FFC4B6"/>
<path d="M574.561 1318.88C569.561 1315.18 562.561 1316.28 558.961 1321.18C555.261 1326.18 556.361 1333.08 561.261 1336.78C566.161 1340.48 573.161 1339.38 576.861 1334.48C580.461 1329.48 579.461 1322.48 574.561 1318.88Z" fill="#FFC4B6"/>
<path d="M688.661 1287.28C678.861 1299.88 680.761 1317.98 692.761 1328.28C693.161 1328.68 693.594 1329.05 694.061 1329.38C707.161 1339.48 726.061 1337.08 736.161 1323.98C746.361 1310.88 743.961 1291.98 730.761 1281.88C717.661 1271.68 698.861 1274.08 688.661 1287.28Z" fill="#FFC4B6"/>
<path d="M637.161 1375.98C629.961 1385.28 631.661 1398.78 641.061 1405.98C650.361 1413.28 663.861 1411.58 671.061 1402.18C678.361 1392.78 676.561 1379.38 667.261 1372.08C657.861 1364.88 644.361 1366.58 637.161 1375.98Z" fill="#FFC4B6"/>
<path d="M736.161 1323.98C708.961 1359.58 701.561 1366.88 671.561 1401.78L671.061 1402.18L637.161 1375.98C662.261 1338.08 665.861 1326.58 688.361 1287.78L688.661 1287.28L736.161 1323.98Z" fill="#FFC4B6"/>
<path fill-rule="evenodd" clip-rule="evenodd" d="M571.261 1339.08C568.261 1339.88 565.161 1339.48 562.561 1337.88C557.061 1334.68 555.261 1327.58 558.461 1322.18C560.061 1319.48 562.561 1317.58 565.561 1316.88C568.561 1316.08 571.561 1316.58 574.261 1318.08C576.861 1319.68 578.761 1322.18 579.461 1325.18C580.261 1328.08 579.861 1331.18 578.261 1333.88C576.961 1336.08 574.961 1337.68 572.661 1338.68C572.194 1338.82 571.728 1338.95 571.261 1339.08ZM559.561 1322.78C556.661 1327.58 558.261 1333.98 563.161 1336.88C565.461 1338.28 568.261 1338.68 570.961 1337.98C573.561 1337.28 575.861 1335.58 577.261 1333.28C578.661 1330.88 579.061 1328.08 578.361 1325.48C577.661 1322.78 575.961 1320.58 573.661 1319.18C571.261 1317.78 568.461 1317.38 565.861 1317.98C565.394 1318.12 564.961 1318.28 564.561 1318.48C562.461 1319.28 560.661 1320.78 559.561 1322.78Z" fill="#FFC4B6"/>
<path d="M561.661 1336.58C560.161 1335.08 558.561 1333.58 556.761 1332.38C552.861 1329.88 548.261 1329.08 544.061 1327.38C536.461 1324.38 528.661 1318.98 526.461 1310.58C526.261 1309.88 526.161 1309.08 525.761 1308.38C525.061 1307.18 523.661 1306.58 522.561 1305.68C519.861 1303.68 518.161 1298.98 519.661 1295.78C520.161 1294.78 521.261 1293.98 522.361 1294.08C524.028 1295.08 525.761 1295.88 527.561 1296.48C524.161 1294.08 521.461 1290.68 518.761 1287.38C518.061 1286.48 517.261 1285.48 516.561 1284.58C515.361 1282.88 513.261 1280.68 513.261 1278.48C513.261 1276.88 514.761 1275.28 516.361 1275.78C517.461 1276.18 518.761 1277.78 519.761 1278.58C524.261 1282.48 528.361 1286.68 533.461 1289.88C528.861 1286.58 525.161 1281.88 522.861 1276.68C522.561 1275.88 522.261 1275.08 522.261 1274.28C522.261 1273.48 522.661 1272.58 523.461 1272.28C524.561 1271.88 525.661 1272.68 526.561 1273.38C530.861 1277.28 534.561 1281.78 538.761 1285.78C542.861 1289.88 547.561 1293.58 553.061 1295.38C550.061 1293.58 547.761 1290.68 545.961 1287.78C545.161 1286.58 544.661 1284.78 545.761 1283.98C546.661 1283.38 547.861 1283.78 548.861 1284.28C553.994 1286.82 559.061 1289.48 564.061 1292.28C565.061 1292.78 565.961 1293.28 566.761 1294.18C567.861 1295.48 568.261 1297.28 568.561 1298.88C569.861 1305.58 570.261 1314.88 575.561 1319.88L561.661 1336.58Z" fill="#FFC4B6"/>
<path d="M731.161 1210.88L728.061 1202.08L715.961 1205.38L703.861 1208.78L710.661 1243.28L711.361 1246.88C710.361 1248.08 709.561 1249.48 709.161 1250.98C707.761 1256.28 712.361 1258.18 716.861 1256.98C726.761 1254.28 734.461 1246.58 741.161 1238.88L731.161 1210.88Z" fill="#FFC4B6"/>
<path d="M731.161 1210.88C731.261 1211.68 731.161 1212.48 731.061 1213.28C729.661 1225.78 721.261 1236.68 710.661 1243.28L703.861 1208.78L715.961 1205.38L728.061 1202.08L731.161 1210.88Z" fill="#EA8883"/>
<path d="M730.761 1198.68C728.161 1194.68 724.861 1193.48 720.561 1192.08C715.561 1190.38 710.461 1189.18 705.661 1187.18C700.861 1185.18 696.261 1182.38 693.361 1178.08C692.061 1179.88 686.561 1185.78 684.461 1187.78C684.461 1190.78 685.161 1203.58 687.161 1211.18C690.061 1221.98 695.961 1236.18 709.061 1235.68C718.361 1235.38 726.961 1229.68 731.061 1221.38C734.261 1214.98 735.061 1204.98 730.761 1198.68Z" fill="#FFC4B6"/>
<path d="M737.661 1200.48C735.761 1204.58 731.761 1206.88 728.661 1205.48C725.561 1204.08 724.561 1199.58 726.461 1195.48C728.261 1191.28 732.261 1189.08 735.361 1190.48C738.461 1191.78 739.461 1196.28 737.661 1200.48Z" fill="#FFC4B6"/>
<path d="M734.761 1193.08C731.061 1192.38 728.061 1195.78 727.761 1199.18C727.661 1199.68 728.361 1199.78 728.461 1199.38C728.761 1196.28 731.261 1193.18 734.561 1193.88C735.061 1193.98 735.161 1193.18 734.761 1193.08Z" fill="#EA8883"/>
<path d="M689.461 1285.38C699.961 1271.88 719.561 1269.38 733.161 1279.88C743.661 1287.98 747.561 1301.58 743.861 1313.58C742.761 1317.18 740.861 1320.38 738.861 1323.48C731.761 1334.38 713.161 1362.18 701.761 1376.38L652.961 1344.88C666.961 1320.68 670.961 1314.08 684.361 1293.18L689.461 1285.38Z" fill="#93C5FD"/>
<path d="M697.861 1374.58C699.061 1375.38 700.261 1376.15 701.461 1376.88C701.761 1377.08 702.061 1376.98 702.261 1376.68C713.128 1361.28 723.961 1345.85 734.761 1330.38C736.294 1328.18 737.828 1325.98 739.361 1323.78C739.861 1323.18 738.761 1322.58 738.361 1323.18C727.561 1338.65 716.728 1354.08 705.861 1369.48C704.328 1371.68 702.794 1373.88 701.261 1376.08C701.528 1376.02 701.794 1375.95 702.061 1375.88C700.861 1375.08 699.661 1374.28 698.461 1373.48C697.761 1373.08 697.161 1374.18 697.861 1374.58Z" fill="#60A5FA"/>
<path d="M688.761 1473.08C692.828 1477.22 696.894 1481.35 700.961 1485.48C702.161 1486.68 702.461 1487.08 704.161 1487.18C707.028 1487.45 709.928 1487.72 712.861 1487.98C713.561 1488.08 713.561 1486.88 712.861 1486.78C710.194 1486.58 707.528 1486.35 704.861 1486.08C704.361 1486.08 703.761 1486.08 703.261 1485.98C702.561 1485.78 703.461 1486.18 703.161 1485.98C702.461 1485.48 701.861 1484.58 701.161 1483.98C697.294 1480.05 693.428 1476.12 689.561 1472.18C689.061 1471.68 688.161 1472.48 688.761 1473.08Z" fill="#1E3A8A"/>
<path d="M721.661 1488.78C725.594 1489.25 729.561 1489.72 733.561 1490.18C734.261 1490.28 734.261 1489.08 733.561 1488.98C729.561 1488.52 725.594 1488.08 721.661 1487.68C720.861 1487.58 720.861 1488.78 721.661 1488.78Z" fill="#1E3A8A"/>
<path d="M741.261 1490.98C745.261 1491.45 749.228 1491.88 753.161 1492.28C753.961 1492.38 753.961 1491.18 753.161 1491.08C749.228 1490.68 745.261 1490.25 741.261 1489.78C740.461 1489.68 740.561 1490.88 741.261 1490.98Z" fill="#1E3A8A"/>
<path d="M760.861 1493.18C764.861 1493.65 768.828 1494.08 772.761 1494.48C773.561 1494.58 773.561 1493.38 772.761 1493.28C768.828 1492.88 764.861 1492.45 760.861 1491.98C760.161 1491.88 760.161 1493.08 760.861 1493.18Z" fill="#1E3A8A"/>
<path d="M780.461 1495.38C784.461 1495.78 788.428 1496.22 792.361 1496.68C793.161 1496.78 793.161 1495.58 792.361 1495.48C788.428 1495.02 784.461 1494.58 780.461 1494.18C779.761 1494.08 779.761 1495.28 780.461 1495.38Z" fill="#1E3A8A"/>
<path d="M805.061 1496.88C803.394 1496.68 801.728 1496.52 800.061 1496.38C799.361 1496.28 799.361 1497.48 800.061 1497.58C801.728 1497.72 803.394 1497.88 805.061 1498.08C805.761 1498.18 805.761 1496.98 805.061 1496.88Z" fill="#1E3A8A"/>
<path d="M1474.46 510.983H1778.96C1784.36 510.983 1788.76 515.283 1788.76 520.683V620.583C1788.76 625.983 1784.36 630.283 1778.96 630.283H1474.46C1469.06 630.283 1464.66 625.983 1464.66 620.583V520.683C1464.66 515.283 1469.06 510.983 1474.46 510.983Z" fill="#93C5FD"/>
<path fill-rule="evenodd" clip-rule="evenodd" d="M1746.26 570.683C1746.26 587.683 1732.46 601.483 1715.46 601.483C1698.46 601.483 1684.66 587.683 1684.66 570.683C1684.66 553.583 1698.46 539.783 1715.46 539.783C1732.46 539.783 1746.26 553.583 1746.26 570.683ZM1699.46 565.183L1706.66 567.683L1709.16 560.383L1709.46 559.483C1710.16 557.483 1709.06 555.283 1707.06 554.583C1705.06 553.883 1702.86 554.983 1702.26 556.983L1701.86 557.983L1700.86 557.583C1698.86 556.983 1696.76 557.983 1696.06 559.983C1695.36 561.983 1696.46 564.183 1698.46 564.883L1699.46 565.183ZM1731.46 574.783H1699.46C1699.46 583.583 1706.66 590.783 1715.46 590.783C1724.26 590.783 1731.46 583.583 1731.46 574.783ZM1734.86 559.983C1734.16 557.983 1731.96 556.883 1729.96 557.583L1728.96 557.883L1728.66 556.983C1727.96 554.983 1725.76 553.883 1723.76 554.583C1721.86 555.283 1720.76 557.383 1721.46 559.383L1721.76 560.383L1724.26 567.583L1731.46 565.183L1732.46 564.783C1734.46 564.183 1735.46 561.983 1734.86 559.983Z" fill="#60A5FA"/>
<path fill-rule="evenodd" clip-rule="evenodd" d="M1657.46 570.683C1657.46 587.683 1643.76 601.483 1626.66 601.483C1609.66 601.483 1595.86 587.683 1595.86 570.683C1595.86 553.583 1609.66 539.783 1626.66 539.783C1643.76 539.783 1657.46 553.583 1657.46 570.683ZM1610.66 565.183L1617.96 567.683L1620.36 560.383L1620.76 559.483C1621.46 557.483 1620.36 555.283 1618.36 554.583C1616.36 553.883 1614.16 554.983 1613.46 556.983L1613.16 557.983L1612.16 557.583C1610.16 556.983 1607.96 557.983 1607.36 559.983C1606.66 561.983 1607.76 564.183 1609.76 564.883L1610.66 565.183ZM1642.56 574.783H1610.66C1610.66 583.583 1617.76 590.783 1626.66 590.783C1635.46 590.783 1642.56 583.583 1642.56 574.783ZM1645.96 559.983C1645.36 557.983 1643.16 556.883 1641.16 557.583L1640.16 557.883L1639.86 556.983C1639.16 554.983 1636.96 553.883 1634.96 554.583C1632.96 555.283 1631.96 557.383 1632.56 559.383L1632.96 560.383L1635.36 567.583L1642.66 565.183L1643.66 564.783C1645.66 564.183 1646.66 561.983 1645.96 559.983Z" fill="#60A5FA"/>
<path fill-rule="evenodd" clip-rule="evenodd" d="M1568.76 570.683C1568.76 587.683 1554.96 601.483 1537.96 601.483C1520.96 601.483 1507.16 587.683 1507.16 570.683C1507.16 553.583 1520.96 539.783 1537.96 539.783C1554.96 539.783 1568.76 553.583 1568.76 570.683ZM1521.96 565.183L1529.16 567.683L1531.66 560.383L1531.96 559.483C1532.66 557.483 1531.66 555.283 1529.66 554.583C1527.66 553.883 1525.46 554.983 1524.76 556.983L1524.46 557.983L1523.46 557.583C1521.46 556.983 1519.26 557.983 1518.56 559.983C1517.96 561.983 1518.96 564.183 1520.96 564.883L1521.96 565.183ZM1553.96 574.783H1522.06C1522.06 583.583 1529.16 590.783 1537.96 590.783C1546.86 590.783 1553.96 583.583 1553.96 574.783ZM1557.36 559.983C1556.66 557.983 1554.56 556.883 1552.56 557.583L1551.56 557.883L1551.16 556.983C1550.56 554.983 1548.36 553.883 1546.36 554.583C1544.36 555.283 1543.26 557.383 1543.96 559.383L1544.26 560.383L1546.76 567.583L1553.96 565.183L1554.96 564.783C1556.96 564.183 1558.06 561.983 1557.36 559.983Z" fill="#60A5FA"/>
<path d="M1228.46 892.383H1533.06C1538.46 892.383 1542.76 896.783 1542.76 902.183V1001.98C1542.76 1007.38 1538.46 1011.78 1533.06 1011.78H1228.46C1223.06 1011.78 1218.76 1007.38 1218.76 1001.98V902.183C1218.76 896.783 1223.06 892.383 1228.46 892.383Z" fill="#93C5FD"/>
<path fill-rule="evenodd" clip-rule="evenodd" d="M1455.76 952.083C1455.76 969.083 1441.96 982.883 1424.96 982.883C1408.06 982.883 1394.26 969.083 1394.26 952.083C1394.26 935.083 1408.06 921.283 1424.96 921.283C1441.96 921.283 1455.76 935.083 1455.76 952.083ZM1416.66 936.083C1414.66 935.383 1412.46 936.383 1411.76 938.483L1411.46 939.383L1410.46 939.083C1408.46 938.483 1406.26 939.483 1405.66 941.483C1404.96 943.483 1405.96 945.683 1408.06 946.383L1408.96 946.683L1416.26 949.083L1418.66 941.883L1419.06 940.883C1419.76 938.883 1418.66 936.683 1416.66 936.083ZM1431.36 962.683C1433.96 961.583 1435.56 958.883 1433.16 956.483C1430.06 953.183 1425.36 955.083 1422.36 957.483C1421.66 958.083 1422.76 959.183 1423.56 958.483C1425.16 957.183 1426.96 955.883 1429.26 956.283C1430.56 956.483 1433.16 957.383 1432.66 959.083C1432.36 960.683 1430.66 961.483 1429.16 961.683C1428.46 961.783 1428.36 962.783 1428.96 963.083C1429.96 963.583 1432.16 964.483 1432.46 965.483C1432.96 967.283 1431.96 968.183 1430.16 968.383C1428.46 968.583 1426.86 968.183 1425.26 967.883C1424.26 967.583 1423.76 969.083 1424.86 969.283C1427.46 969.983 1431.66 970.783 1433.66 968.383C1435.76 966.183 1433.56 964.083 1431.36 962.683ZM1444.56 942.683C1444.56 942.283 1444.49 941.883 1444.36 941.483C1443.76 939.483 1441.56 938.483 1439.56 939.083L1438.56 939.383L1438.16 938.483C1437.56 936.383 1435.36 935.383 1433.36 936.083C1431.36 936.683 1430.26 938.883 1430.96 940.883L1431.26 941.883L1433.76 949.083L1441.06 946.683L1441.96 946.383C1443.56 945.783 1444.56 944.283 1444.56 942.683Z" fill="#60A5FA"/>
<path fill-rule="evenodd" clip-rule="evenodd" d="M1367.26 952.083C1367.26 969.083 1353.56 982.883 1336.46 982.883C1319.56 982.883 1305.76 969.083 1305.76 952.083C1305.76 935.083 1319.56 921.283 1336.46 921.283C1353.56 921.283 1367.26 935.083 1367.26 952.083ZM1328.16 936.083C1326.16 935.383 1323.96 936.383 1323.36 938.383L1322.96 939.383L1321.96 939.083C1320.06 938.383 1317.86 939.483 1317.16 941.483C1316.46 943.483 1317.46 945.683 1319.56 946.383L1320.46 946.683L1327.76 949.083L1330.16 941.883L1330.56 940.883C1331.26 938.883 1330.16 936.683 1328.16 936.083ZM1342.86 962.583C1345.46 961.583 1347.06 958.883 1344.76 956.483C1341.66 953.183 1336.86 955.083 1333.86 957.483C1333.16 958.083 1334.36 959.183 1335.06 958.483C1336.66 957.183 1338.46 955.883 1340.76 956.283C1342.06 956.483 1344.66 957.383 1344.26 958.983C1343.86 960.683 1342.16 961.483 1340.66 961.683C1339.96 961.783 1339.86 962.783 1340.46 963.083C1341.46 963.583 1343.76 964.383 1343.96 965.483C1344.46 967.283 1343.46 968.183 1341.66 968.383C1340.06 968.583 1338.36 968.183 1336.76 967.883C1335.76 967.583 1335.26 969.083 1336.36 969.283C1339.06 969.983 1343.16 970.783 1345.26 968.383C1347.26 966.183 1345.06 964.083 1342.86 962.583ZM1356.06 942.683C1356.06 942.283 1355.99 941.883 1355.86 941.483C1355.26 939.483 1353.06 938.383 1351.06 939.083L1350.06 939.383L1349.76 938.383C1349.06 936.383 1346.86 935.383 1344.86 936.083C1342.86 936.683 1341.86 938.883 1342.46 940.883L1342.76 941.883L1345.36 949.083L1352.56 946.683L1353.56 946.383C1355.16 945.783 1356.06 944.283 1356.06 942.683Z" fill="#60A5FA"/>
<path fill-rule="evenodd" clip-rule="evenodd" d="M699.661 1094.88L656.461 1058.58C651.761 1059.68 646.961 1060.18 642.161 1060.18H437.461C403.961 1060.18 376.661 1032.88 376.661 999.383V943.483C376.661 909.883 403.961 882.583 437.461 882.583H642.161C675.761 882.583 703.061 909.883 703.061 943.483V999.383C703.061 1015.38 696.861 1030.48 685.661 1041.98L699.661 1094.88ZM657.061 1055.88L695.361 1088.18L682.961 1041.28L683.461 1040.78C694.561 1029.68 700.661 1014.98 700.661 999.283V943.383C700.661 911.183 674.361 884.883 642.161 884.883H437.461C405.161 884.883 378.961 911.183 378.961 943.383V999.283C378.961 1031.58 405.161 1057.78 437.461 1057.78H642.161C646.961 1057.78 651.761 1057.18 656.461 1056.08L657.061 1055.88Z" fill="#60A5FA"/>
<path fill-rule="evenodd" clip-rule="evenodd" d="M1839.16 724.983L1850.26 683.283C1841.56 674.383 1836.76 662.583 1836.76 650.183V606.783C1836.76 580.583 1858.06 559.283 1884.26 559.283H2042.96C2069.16 559.283 2090.46 580.583 2090.46 606.783V650.183C2090.46 676.283 2069.16 697.583 2042.96 697.583H1884.26C1880.56 697.583 1876.86 697.183 1873.26 696.283L1839.16 724.983ZM1884.16 561.683C1859.36 561.683 1839.16 581.883 1839.16 606.783V650.183C1839.16 662.283 1843.86 673.583 1852.36 682.083L1852.86 682.583L1843.36 718.283L1872.56 693.783L1873.16 693.883C1876.76 694.783 1880.46 695.283 1884.16 695.283H2042.96C2067.86 695.283 2088.06 674.983 2088.06 650.183V606.783C2088.06 581.883 2067.86 561.683 2042.96 561.683H1884.16Z" fill="#60A5FA"/>
<path fill-rule="evenodd" clip-rule="evenodd" d="M41.261 998.183C30.961 998.183 22.561 989.783 22.561 979.483C22.561 969.183 30.961 960.783 41.261 960.783C51.561 960.783 59.961 969.183 59.961 979.483C59.961 989.783 51.561 998.183 41.261 998.183ZM41.261 966.083C33.861 966.083 27.861 972.083 27.861 979.483C27.861 986.883 33.861 992.883 41.261 992.883C48.661 992.883 54.661 986.883 54.661 979.483C54.661 972.083 48.661 966.083 41.261 966.083Z" fill="#A3A3A3"/>
<path fill-rule="evenodd" clip-rule="evenodd" d="M2136.66 1370.28C2123.96 1370.28 2113.66 1359.98 2113.66 1347.28C2113.66 1334.58 2123.96 1324.18 2136.66 1324.18C2149.36 1324.18 2159.76 1334.58 2159.76 1347.28C2159.76 1359.98 2149.36 1370.28 2136.66 1370.28ZM2136.66 1330.88C2127.66 1330.88 2120.36 1338.18 2120.36 1347.28C2120.36 1356.28 2127.66 1363.58 2136.66 1363.58C2145.66 1363.58 2153.06 1356.28 2153.06 1347.28C2153.06 1338.18 2145.66 1330.88 2136.66 1330.88Z" fill="#A3A3A3"/>
<path d="M2228.56 866.583C2228.56 873.983 2222.66 879.983 2215.26 879.983C2207.86 879.983 2201.96 873.983 2201.96 866.583C2201.96 859.183 2207.86 853.283 2215.26 853.283C2222.66 853.283 2228.56 859.183 2228.56 866.583Z" fill="#A3A3A3"/>
<path d="M1676.66 374.983C1676.66 381.883 1671.06 387.483 1664.16 387.483C1657.26 387.483 1651.66 381.883 1651.66 374.983C1651.66 368.083 1657.26 362.483 1664.16 362.483C1671.06 362.483 1676.66 368.083 1676.66 374.983Z" fill="#A3A3A3"/>
<path d="M182.761 1389.78C182.761 1396.48 177.361 1401.88 170.561 1401.88C163.861 1401.88 158.461 1396.48 158.461 1389.78C158.461 1383.08 163.861 1377.58 170.561 1377.58C177.361 1377.58 182.761 1383.08 182.761 1389.78Z" fill="#A3A3A3"/>
<path d="M1218.76 50.2832C1218.76 63.7832 1207.76 74.7832 1194.26 74.7832C1207.76 74.7832 1218.76 85.6832 1218.76 99.1832C1218.76 85.6832 1229.66 74.7832 1243.16 74.7832C1229.66 74.7832 1218.76 63.7832 1218.76 50.2832Z" fill="#A3A3A3"/>
<path d="M215.961 461.483C215.961 474.883 205.161 485.783 191.661 485.783C205.161 485.783 215.961 496.683 215.961 510.083C215.961 496.683 226.861 485.783 240.261 485.783C226.861 485.783 215.961 474.883 215.961 461.483Z" fill="#A3A3A3"/>
<path d="M1711.06 811.583C1711.06 823.483 1701.36 833.183 1689.46 833.183C1701.36 833.183 1711.06 842.883 1711.06 854.783C1711.06 842.883 1720.76 833.183 1732.66 833.183C1720.76 833.183 1711.06 823.483 1711.06 811.583Z" fill="#A3A3A3"/>
</svg>
